HIERARCHY
ROOT Hips
{
  OFFSET -32.4566 101.358 -11.8881
  CHANNELS 6 Xposition Yposition Zposition Zrotation Xrotation Yrotation
  JOINT Spine
  {
    OFFSET -0.000355721 21.3001 -0.016921
    CHANNELS 3 Zrotation Xrotation Yrotation
    JOINT LeftArm
    {
      OFFSET 13.5181 21.3012 0
      CHANNELS 3 Zrotation Xrotation Yrotation
      JOINT LeftForeArm
      {
        OFFSET 24.5783 0 0
        CHANNELS 3 Zrotation Xrotation Yrotation
        JOINT LeftHand
        {
          OFFSET 24.5783 0 0
          CHANNELS 3 Zrotation Xrotation Yrotation
          End Site
          {
            OFFSET 7.32568 1.52588e-05 0.0169305
          }
        }
      }
    }
    JOINT Head
    {
      OFFSET 0 27.4458 -0.00489235
      CHANNELS 3 Zrotation Xrotation Yrotation
      End Site
      {
        OFFSET 0 0 0
      }
    }
    JOINT RightArm
    {
      OFFSET -13.5174 21.3012 0
      CHANNELS 3 Zrotation Xrotation Yrotation
      JOINT RightForeArm
      {
        OFFSET -24.5783 0 0
        CHANNELS 3 Zrotation Xrotation Yrotation
        JOINT RightHand
        {
          OFFSET -24.5783 0 0
          CHANNELS 3 Zrotation Xrotation Yrotation
          End Site
          {
            OFFSET -7.32568 1.52588e-05 0.0169305
          }
        }
      }
    }
  }
  JOINT RightUpLeg
  {
    OFFSET -8.44614 -9.41038 0.835684
    CHANNELS 3 Zrotation Xrotation Yrotation
    JOINT RightLeg
    {
      OFFSET 0 -40.9639 0
      CHANNELS 3 Zrotation Xrotation Yrotation
      JOINT RightFoot
      {
        OFFSET 0 -40.9639 0
        CHANNELS 3 Zrotation Xrotation Yrotation
        End Site
        {
          OFFSET 0.50614 -9.67405 14.6709
        }
      }
    }
  }
  JOINT LeftUpLeg
  {
    OFFSET 8.44614 -9.41038 0.835684
    CHANNELS 3 Zrotation Xrotation Yrotation
    JOINT LeftLeg
    {
      OFFSET 0 -40.9639 0
      CHANNELS 3 Zrotation Xrotation Yrotation
      JOINT LeftFoot
      {
        OFFSET 0 -40.9639 0
        CHANNELS 3 Zrotation Xrotation Yrotation
        End Site
        {
          OFFSET -0.50614 -9.67405 14.6709
        }
      }
    }
  }
}
MOTION
Frames:	23
Frame Time:	0.0333333
-142.904 102.701 -29.5256 -0.216441 -21.7138 -89.9951 3.80352 -1.86123 -0.276749 -27.9187 -42.7163 -5.91705 0.000969115 -9.14099e-05 -94.1146 28.7695 -5.64627 10.5063 -31.7827 13.4217 13.4976 -5.25828 6.31128 -46.494 0.0112703 -0.00195049 50.4511 10.7662 -2.58907 24.1433 -16.0882 -7.51063 -9.26295 -2.5201e-06 26.2111 -0.400064 -15.9934 -18.1693 -21.3264 88.9416 -25.9507 74.0074 3.64394e-05 21.5971 -0.622645 -32.1898 13.5578 1.94089 
-144.233 103.016 -29.1991 0.842773 -21.4337 -90.367 2.29348 -2.26206 -1.43366 -28.0673 -38.4055 -5.38851 0.000790713 -0.000362222 -104.041 17.2463 -4.56083 12.7277 -29.3594 11.1561 14.0656 1.28717 -1.81255 -53.5613 0.0114674 -0.00222901 43.3094 14.0442 -6.84477 23.5797 -16.7134 -6.68463 -10.7629 -2.13339e-05 24.2372 -0.266273 -13.1391 -19.2839 -17.6395 77.1949 -20.0389 71.2654 -0.00420128 27.7961 -0.30228 -37.2934 19.9768 3.89702 
-145.082 103.187 -28.6842 1.35945 -20.847 -90.5102 1.77676 -2.56392 -2.1383 -29.5205 -32.7549 -6.00284 0.000581438 -0.000620486 -111.165 13.6997 -6.14386 12.989 -25.7664 10.3285 13.5197 9.15511 -7.93319 -55.4319 0.0115301 -0.00254326 33.8757 21.803 -17.7836 28.822 -16.7706 -6.15862 -11.1423 1.46319e-05 23.2945 -0.183908 -11.1721 -19.6512 -15.7982 65.5648 -15.9127 67.4271 3.23906e-06 37.0189 -0.299761 -35.4287 9.5126 5.66176 
-145.86 103.092 -27.6238 1.97353 -20.6113 -89.1008 1.30603 -3.35502 -2.95305 -32.6433 -26.9515 -8.32082 0.000376574 -0.000827857 -115.101 11.9566 -2.48168 12.2514 -22.8626 11.8374 11.9423 18.2912 -11.6919 -54.9258 0.0116229 -0.00275174 26.0639 29.3693 -23.6587 31.8603 -17.331 -5.51661 -10.1581 2.15824e-05 23.1048 -0.136062 -8.93595 -20.7191 -16.5061 51.4813 -13.6306 59.8009 5.66744e-05 39.8088 -0.100159 -39.6675 9.72558 8.84814 
-146.446 102.495 -25.9906 2.63129 -19.3965 -86.5857 1.43788 -4.21732 -3.61138 -35.9464 -21.2176 -12.1094 0.000219596 -0.000933445 -115.191 11.9717 -0.471702 10.6843 -19.837 14.2142 9.14889 28.1741 -13.9208 -53.4889 0.0118649 -0.00284464 21.7773 28.6044 -21.4993 30.2168 -17.2036 -5.49455 -9.5263 4.76183e-06 24.7529 -0.136904 -7.23404 -22.8036 -18.0567 36.1503 -11.2915 47.1475 -3.71751e-05 33.4939 0.573255 -52.1771 18.1758 7.1806 
-146.675 101.725 -24.253 2.89359 -16.9711 -85.3426 2.41795 -4.03799 -3.26618 -37.6426 -17.2781 -15.6205 0.000113383 -0.000940552 -112.632 9.64384 -0.994049 10.729 -17.1309 14.6898 6.63862 38.3078 -14.8916 -49.549 0.0121917 -0.00289013 19.3553 30.1776 -20.7523 29.3116 -15.7999 -6.15054 -9.47441 3.10381e-05 26.8562 -0.153596 -6.87956 -24.6303 -18.7243 21.8258 -5.92185 31.3702 -2.91476e-05 19.955 1.75622 -61.4849 26.8046 7.27105 
-146.837 101.112 -22.5394 3.30099 -13.9572 -85.0378 2.89666 -4.26158 -2.8574 -36.7411 -15.2862 -17.6353 2.04285e-05 -0.000925139 -109.992 6.84305 -2.24859 12.1236 -13.4652 14.721 5.23783 47.6432 -13.1894 -43.9128 0.0126047 -0.00290073 18.7475 34.7439 -22.2386 29.0872 -13.5087 -6.21275 -9.97682 -2.91809e-05 26.419 -0.131804 -6.38214 -26.0167 -18.8685 11.3044 -0.294424 12.9809 1.51907e-06 8.54459 2.2599 -60.6401 24.5608 9.19123 
-146.99 100.911 -20.6743 3.67742 -9.85649 -87.5181 3.60632 -4.90435 -1.74452 -33.0155 -14.5051 -17.4386 -7.03835e-05 -0.000922962 -108.046 8.63228 -3.19081 11.8091 -9.14691 14.6801 5.88673 55.0972 -8.7058 -38.2785 0.0131973 -0.00284392 21.8136 35.6666 -23.9623 29.5777 -10.3445 -6.3086 -9.50458 2.08977e-05 24.3775 -0.0412309 -3.5969 -26.0692 -15.8137 4.72109 2.85957 8.81487 0.000160294 8.21362 1.02512 -45.3142 2.20486 7.90355 
-146.969 100.631 -19.2929 3.37267 -5.17117 -90.6503 3.32479 -5.50566 -1.06575 -27.1645 -13.3351 -16.3503 -0.000157489 -0.000944229 -106.807 9.79501 -1.81337 11.4761 -3.53047 15.5366 7.32928 61.0279 -4.95928 -34.1943 0.013944 -0.00269747 28.2864 29.1175 -21.4553 29.5068 -5.72261 -6.79833 -6.64043 -4.45222e-05 24.2678 -0.0237268 -3.50758 -25.0528 -15.3471 2.68643 6.03942 21.8843 9.63628e-05 5.51979 0.102573 -29.5847 -15.2138 16.833 
-146.7 100.451 -18.4654 3.43266 -2.36128 -88.7068 0.704668 -5.8981 -2.61939 -23.8307 -11.4219 -18.2068 -0.000232249 -0.000973727 -105.848 10.2388 0.445378 11.1566 2.76187 16.4417 5.80024 65.4944 -5.9899 -31.5078 0.0147022 -0.00249109 35.5886 21.468 -19.1135 31.4917 -3.06643 -7.15976 -6.78749 0.000517574 24.8927 -0.0289319 -4.33376 -24.1283 -17.2053 4.61946 6.58515 22.5853 -5.42515e-05 2.93442 -0.0198839 -28.4083 -15.3831 16.4079 
-146.294 100.55 -17.804 3.49773 -1.85671 -84.4795 -1.39702 -5.65785 -3.95639 -24.6758 -9.02803 -22.7934 -0.000274524 -0.000945261 -104.098 11.414 2.10357 10.9435 6.78341 16.4015 1.96051 67.0663 -10.1819 -30.0351 0.0154093 -0.00225834 42.5037 19.301 -21.2598 35.4797 -3.41738 -7.07269 -9.571 0.000888591 25.1724 -0.0267498 -3.38269 -23.7183 -18.0423 6.70156 5.42543 18.9101 -0.000177605 3.74366 0.00990731 -33.1221 -12.9649 11.4554 
-145.915 100.891 -16.9761 3.55317 -1.75788 -82.1185 -2.04524 -5.41051 -4.15694 -27.1548 -6.69305 -26.3293 -0.000286733 -0.000857918 -101.754 11.1903 3.20769 10.5552 8.16591 16.1181 -0.361067 67.7783 -11.7188 -28.6465 0.0160251 -0.00205362 47.9018 23.0452 -26.4085 38.2789 -4.10215 -6.86853 -10.9759 0.000169131 24.7872 -0.0194663 -2.21316 -22.626 -18.5404 7.11329 4.82736 17.492 0.00015015 3.51852 0.00555225 -34.8727 -10.211 8.95017 
-145.562 101.251 -15.7957 3.85933 -1.31512 -81.9706 -1.10538 -5.50287 -3.21248 -30.8812 -4.60727 -28.4523 -0.000272797 -0.00071273 -98.9937 9.75605 3.40811 10.3042 7.15092 15.9114 -0.770078 67.6371 -9.11322 -26.7185 0.0165549 -0.00190548 51.5346 28.8304 -30.8045 40.3126 -4.45842 -7.05736 -11.0148 -0.000434445 23.9038 -0.0112855 -1.22811 -21.0936 -18.4092 6.23923 4.37287 15.8502 0.000104127 3.08205 -0.011186 -32.3244 -11.5481 11.5689 
-145.167 101.381 -14.5106 4.06196 -0.673684 -82.7669 -0.0178778 -5.42178 -2.0192 -35.2104 -2.79073 -28.8764 -0.000357424 -0.000573583 -96.6879 7.43946 2.43251 9.95046 5.73004 15.2059 -0.382219 66.7983 -3.03111 -24.7302 0.0170654 -0.00175082 55.1413 34.0137 -32.94 41.0879 -4.59292 -7.16664 -11.1517 -0.000124576 22.7918 -0.00580467 -0.578148 -19.9548 -17.6208 5.38101 4.31157 18.4508 -0.00107395 2.47214 -0.0263335 -29.9707 -11.9081 11.4822 
-144.682 101.345 -13.3759 4.30575 0.0383969 -83.7046 0.385578 -5.22149 -1.33794 -38.7585 -0.870799 -27.6097 0.00973207 -0.00044045 -94.7579 7.63127 -0.263623 8.88401 5.30562 13.6245 0.279886 65.6555 3.42962 -21.9809 0.017528 -0.00163482 57.7451 37.8685 -31.9614 40.2478 -4.56118 -7.34035 -11.6825 0.000217727 21.6492 -0.00150138 -0.0657616 -19.3347 -16.4859 5.05207 4.35189 18.3671 -0.00324108 1.68175 -0.0381642 -28.9983 -13.1261 12.388 
-144.128 101.241 -12.4194 4.75617 0.627641 -85.0007 0.271441 -5.13875 -0.993402 -41.7365 1.20576 -24.6007 0.00150464 -0.000264324 -92.5923 9.0584 -4.04979 7.49145 5.32361 11.8781 1.24634 64.3862 8.3407 -17.94 0.0179077 -0.00162789 57.8981 39.1059 -30.6829 38.6698 -4.63138 -7.75977 -12.3858 0.00117299 20.4557 0.00467202 0.665884 -18.916 -14.5982 4.79976 4.30452 17.3269 -0.00610864 0.703967 -0.0453421 -28.4318 -14.5603 14.0237 
-143.717 101.156 -11.6134 5.28803 1.12092 -86.5202 -0.0195819 -5.29949 -0.91592 -44.6913 3.26001 -20.0587 0.000891409 -0.000195865 -89.2073 10.2464 -5.70775 6.66674 5.23482 10.6872 2.50779 63.4457 11.2833 -13.4581 0.0182268 -0.00169776 56.342 35.5421 -27.6471 34.5999 -4.76222 -7.96148 -13.2594 0.00102797 18.9028 0.0160676 2.04547 -18.4534 -11.8768 4.53377 4.09553 18.3803 -0.00876868 0.0554025 -0.0717909 -28.0153 -15.2251 14.3116 
-143.409 101.136 -10.9961 5.82918 1.68328 -88.0633 -0.374969 -5.63766 -0.899041 -47.6706 5.50721 -14.9829 -8.33536e-05 -0.000400198 -82.9632 10.7062 -6.23959 5.52969 5.54991 10.0797 3.62353 63.4238 12.187 -9.31169 0.018534 -0.00176408 54.8386 28.1 -20.4976 28.3075 -4.55466 -7.77425 -13.7557 0.000403537 16.8153 0.0274508 3.44119 -17.9281 -8.97255 4.59244 3.57496 19.9209 -0.0104779 0.0558774 -0.117713 -27.651 -15.6537 14.2333 
-143.231 101.11 -10.5824 6.02515 1.92214 -89.6075 -0.773912 -5.80207 -0.800726 -50.8294 7.8192 -10.2728 -0.00032844 -0.000928559 -72.5342 9.58573 -7.37766 4.05547 5.76239 9.90752 4.87546 64.146 11.8692 -6.36998 0.018856 -0.00178967 54.2508 21.0549 -12.3297 23.9957 -4.22167 -7.17008 -12.0239 0.000335504 16.3534 0.0247009 3.12725 -19.9308 -7.33058 4.47388 3.51431 21.2308 -0.0114384 0.0792182 -0.148812 -27.4143 -16.0783 14.3925 
-143.176 101.089 -10.4563 5.889 1.91013 -90.8767 -1.09236 -5.85563 -0.581243 -53.8686 10.1576 -6.55812 -0.000218677 -0.00149899 -59.3548 6.08944 -7.99715 5.53923 5.55605 9.68698 6.04131 65.5895 10.0924 -5.0816 0.0191909 -0.001779 54.4963 18.4585 -9.31801 23.3813 -3.40618 -7.05569 -10.0092 0.000249448 19.8221 -0.00926493 -1.71329 -21.4916 -12.4353 4.24842 3.9098 20.628 -0.0117038 0.00112654 -0.151359 -26.7914 -17.1827 16.1243 
-143.383 100.993 -10.5343 5.36903 1.51133 -91.2111 -1.38617 -6.00307 -0.53081 -57.0686 12.9219 -3.41429 5.98967e-05 -0.00196151 -45.3524 -0.15057 -5.8563 6.60866 4.80408 9.92922 6.60968 67.1747 7.47725 -5.4234 0.0195193 -0.00175782 54.9816 20.9442 -13.5104 25.1619 -3.36149 -6.16117 -11.3291 0.000494148 24.3409 -0.0265102 -4.05485 -21.5189 -16.4675 3.83529 4.71947 19.2956 -0.0104982 -0.00122081 -0.146124 -26.4409 -18.1319 17.4632 
-143.729 100.779 -10.8188 4.92218 0.56861 -91.1259 -1.62645 -6.11877 -0.435446 -60.9489 15.1539 0.264305 0.000379538 -0.0022165 -33.0646 -3.55934 -4.12354 6.50106 3.39484 10.0813 6.79152 67.935 5.69325 -6.01831 0.0198284 -0.00174341 55.31 25.2677 -18.6265 27.6328 -4.1785 -4.11217 -13.5941 -0.00283697 26.5995 -0.0157626 -2.12668 -21.5715 -16.5605 3.0203 5.37469 19.2305 -0.00741621 0.165135 -0.106662 -26.8802 -18.4614 17.0845 
-144.037 100.441 -11.2369 4.67856 -0.835286 -91.2115 -1.90733 -6.22013 -0.0964929 -65.4058 14.368 5.55501 0.000591408 -0.00227151 -24.7559 -3.00208 -2.77296 7.81993 1.54262 9.75546 6.99962 67.7931 5.5201 -6.5695 0.0201311 -0.00171601 55.9309 27.3993 -20.4341 28.6192 -4.9417 -0.602682 -14.7021 -0.00228764 22.8006 -0.00929962 -1.6298 -22.8733 -14.8357 2.02926 5.09125 20.2186 -0.00143599 1.8205 -0.0525958 -27.5238 -18.9968 15.5752 
